<!DOCTYPE svg PUBLIC "-//W3C//DTD SVG 1.1//EN" "http://www.w3.org/Graphics/SVG/1.1/DTD/svg11.dtd">
<!-- Uploaded to: SVG Repo, www.svgrepo.com, Transformed by: SVG Repo Mixer Tools -->
<svg fill="#000000" width="800px" height="800px" viewBox="0 0 24 24" id="mobile-payment-done-2" data-name="Flat Line" xmlns="http://www.w3.org/2000/svg" class="icon flat-line">
<g id="SVGRepo_bgCarrier" stroke-width="0"/>
<g id="SVGRepo_tracerCarrier" stroke-linecap="round" stroke-linejoin="round"/>
<g id="SVGRepo_iconCarrier">
<path id="secondary" d="M20,3H17l-.5,2h-3L13,3H10A1,1,0,0,0,9,4V20a1,1,0,0,0,1,1H20a1,1,0,0,0,1-1V4A1,1,0,0,0,20,3Z" style="fill: #ffffff; stroke-width: 2;"/>
<polyline id="primary" points="13 12 14.09 13.25 16 10.75" style="fill: none; stroke: #000000; stroke-linecap: round; stroke-linejoin: round; stroke-width: 2;"/>
<path id="primary-2" data-name="primary" d="M4,7H9V17H4a1,1,0,0,1-1-1V8A1,1,0,0,1,4,7ZM3,11H9m12,9V4a1,1,0,0,0-1-1H10A1,1,0,0,0,9,4V20a1,1,0,0,0,1,1H20A1,1,0,0,0,21,20ZM13.5,5h3L17,3H13Z" style="fill: none; stroke: #000000; stroke-linecap: round; stroke-linejoin: round; stroke-width: 2;"/>
</g>
</svg>