<?xml version="1.0" encoding="iso-8859-1"?>
<!-- Uploaded to: SVG Repo, www.svgrepo.com, Generator: SVG Repo Mixer Tools -->
<svg fill="#000000" version="1.1" id="Layer_1" xmlns="http://www.w3.org/2000/svg" xmlns:xlink="http://www.w3.org/1999/xlink" 
	 viewBox="0 0 496 496" xml:space="preserve">
<g>
	<g>
		<g>
			<path d="M435.264,338.44C448.824,310.368,456,279.344,456,248s-7.176-62.368-20.736-90.44C470.08,148.896,496,117.456,496,80
				c0-44.112-35.888-80-80-80c-37.512,0-68.992,25.992-77.592,60.88c-6.232-3.008-12.608-5.736-19.176-8.128
				C314.728,22.944,289.008,0,257.968,0h-19.936c-31.04,0-56.76,22.944-61.256,52.752c-6.568,2.392-12.944,5.128-19.176,8.128
				C148.992,25.992,117.512,0,80,0C35.888,0,0,35.888,0,80c0,37.456,25.92,68.896,60.736,77.56C47.176,185.632,40,216.656,40,248
				s7.176,62.368,20.736,90.44C25.92,347.104,0,378.544,0,416c0,44.112,35.888,80,80,80c37.472,0,68.92-25.936,77.568-60.776
				c3.384,1.624,6.88,3.152,10.432,4.632V496h160v-56.144c3.552-1.48,7.048-3,10.432-4.632C347.08,470.064,378.528,496,416,496
				c44.112,0,80-35.888,80-80C496,378.544,470.08,347.104,435.264,338.44z M416,16c35.288,0,64,28.712,64,64s-28.712,64-64,64
				c-35.288,0-64-28.712-64-64S380.712,16,416,16z M192,62.032C192,36.648,212.648,16,238.032,16h19.936
				C283.352,16,304,36.648,304,62.032v3.096c-4.344-3.664-8.248-7.92-11.536-12.856C287.344,44.584,278.784,40,269.544,40h-43.096
				c-9.232,0-17.8,4.584-23.184,12.68c-3.128,4.696-6.968,8.856-11.264,12.464V62.032z M192,84.568
				c9.784-5.768,18.304-13.6,24.864-23.44C219,57.92,222.584,56,226.456,56h43.096c3.864,0,7.456,1.92,9.872,5.552
				c6.312,9.464,14.8,17.256,24.576,23.016V88c0,30.872-25.128,56-56,56s-56-25.128-56-56V84.568z M274.76,160
				c-6.064,5.504-16.512,11.44-26.76,15.456c-10.248-4.008-20.704-9.952-26.76-15.456H274.76z M16,80c0-35.288,28.712-64,64-64
				s64,28.712,64,64s-28.712,64-64,64S16,115.288,16,80z M80,480c-35.288,0-64-28.712-64-64c0-35.288,28.712-64,64-64
				s64,28.712,64,64C144,451.288,115.288,480,80,480z M168,422.48c-2.8-1.272-5.464-2.632-8.128-4.008
				c0.024-0.824,0.128-1.64,0.128-2.472c0-44.112-35.888-80-80-80c-0.84,0-1.656,0.104-2.496,0.128C63.48,309.016,56,278.68,56,248
				s7.48-61.016,21.504-88.128C78.344,159.896,79.16,160,80,160c44.112,0,80-35.888,80-80c0-0.816-0.096-1.608-0.12-2.424
				c5.224-2.704,10.6-5.152,16.12-7.384V88c0,22.608,10.496,42.792,26.84,56H192c-39.704,0-72,32.296-72,72v80
				c0,26.472,21.528,48,48,48V422.48z M168,328c-17.648,0-32-14.352-32-32v-64h32V328z M240,480h-56v-16h56V480z M312,480h-56v-16
				h56V480z M312,448h-56v-88h-16v88h-56v-80.808c18.232-3.72,32-19.872,32-39.192h64c0,19.312,13.768,35.472,32,39.192V448z
				 M184,350.528V328h16C200,338.416,193.288,347.216,184,350.528z M312,350.528c-9.288-3.312-16-12.112-16-22.528h16V350.528z
				 M312,200v112H184V200h-16v16h-32c0-30.872,25.128-56,56-56h9.656c7.36,17.672,37.024,29.16,43.648,31.528l2.696,0.976
				l2.696-0.968c6.616-2.368,36.288-13.856,43.648-31.528H304c30.872,0,56,25.128,56,56h-32V216v-16H312z M360,232v64
				c0,17.648-14.352,32-32,32v-96H360z M336.128,418.472c-2.664,1.376-5.328,2.736-8.128,4.008V344c26.472,0,48-21.528,48-48v-80
				c0-39.704-32.296-72-72-72h-10.84C309.504,130.792,320,110.608,320,88V70.192c5.52,2.232,10.896,4.688,16.12,7.384
				C336.096,78.392,336,79.184,336,80c0,44.112,35.888,80,80,80c0.84,0,1.656-0.104,2.496-0.128C432.52,186.984,440,217.32,440,248
				s-7.48,61.016-21.504,88.128C417.656,336.104,416.84,336,416,336c-44.112,0-80,35.888-80,80
				C336,416.832,336.104,417.648,336.128,418.472z M416,480c-35.288,0-64-28.712-64-64c0-35.288,28.712-64,64-64
				c35.288,0,64,28.712,64,64C480,451.288,451.288,480,416,480z"/>
			<rect x="40" y="40" width="80" height="16"/>
			<rect x="40" y="72" width="80" height="16"/>
			<rect x="104" y="104" width="16" height="16"/>
			<rect x="40" y="104" width="48" height="16"/>
			<rect x="376" y="40" width="80" height="16"/>
			<rect x="376" y="72" width="80" height="16"/>
			<rect x="440" y="104" width="16" height="16"/>
			<rect x="376" y="104" width="48" height="16"/>
			<rect x="40" y="376" width="80" height="16"/>
			<rect x="40" y="408" width="80" height="16"/>
			<rect x="104" y="440" width="16" height="16"/>
			<rect x="40" y="440" width="48" height="16"/>
			<rect x="376" y="376" width="80" height="16"/>
			<rect x="376" y="408" width="80" height="16"/>
			<rect x="440" y="440" width="16" height="16"/>
			<rect x="376" y="440" width="48" height="16"/>
		</g>
	</g>
</g>
</svg>